<?xml version="1.0" standalone="no"?>
<!DOCTYPE svg PUBLIC "-//W3C//DTD SVG 20010904//EN"
 "http://www.w3.org/TR/2001/REC-SVG-20010904/DTD/svg10.dtd">
<svg version="1.0" xmlns="http://www.w3.org/2000/svg"
 width="197.000000pt" height="197.000000pt" viewBox="0 0 197.000000 197.000000"
 preserveAspectRatio="xMidYMid meet">
<metadata>
Created by potrace 1.11, written by Peter Selinger 2001-2013
</metadata>
<g transform="translate(0.000000,197.000000) scale(0.100000,-0.100000)"
fill="#000000" stroke="none">
<path d="M837 1880 c-383 -69 -679 -365 -746 -744 -16 -87 -13 -246 5 -334
105 -512 614 -827 1125 -697 35 9 105 36 155 60 244 118 418 328 491 595 25
92 25 357 0 450 -44 159 -169 360 -283 456 -178 148 -347 213 -569 219 -71 2
-152 0 -178 -5z m468 -541 c104 -19 135 -48 102 -93 -12 -16 -15 -16 -57 3
-60 27 -169 28 -227 2 -88 -40 -131 -153 -120 -313 10 -153 75 -231 203 -244
46 -5 72 -2 119 15 33 12 67 24 76 27 10 4 20 -4 28 -23 11 -25 10 -29 -9 -45
-70 -56 -253 -63 -354 -14 -31 15 -68 43 -82 61 -31 41 -64 142 -64 194 0 21
-2 40 -6 43 -3 3 -26 -1 -51 -8 -26 -8 -90 -14 -145 -14 l-98 0 0 -150 0 -150
-27 -6 c-58 -15 -58 -18 -61 342 -1 181 0 339 3 352 5 22 8 22 148 22 159 0
226 -13 276 -56 l31 -25 32 25 c40 30 78 45 138 56 66 11 80 11 145 -1z"/>
<path d="M620 1134 l0 -136 103 4 c116 5 157 20 183 70 22 43 14 121 -15 152
-29 31 -91 46 -190 46 l-81 0 0 -136z"/>
</g>
</svg>
